<svg width="855" height="968" viewBox="0 0 855 968" fill="none" xmlns="http://www.w3.org/2000/svg">
<g opacity="0.6" clip-path="url(#clip0_23_2)">
<path d="M-152.953 356.268C-91.577 285.781 29.6289 376.97 205.25 337.061C357.359 302.479 366.11 210.622 487.642 215.177C576.431 218.487 673.183 269.755 726.356 359.072C784.997 457.551 763.68 557.81 757.696 582.139C730.983 691.263 651.698 748.826 623.728 768.487C508.488 849.44 379.173 835.254 317.136 828.479C84.0999 802.957 -165.386 636.583 -176.495 455.701C-177.971 432.021 -180.658 388.098 -152.953 356.268Z" fill="url(#paint0_linear_23_2)"/>
</g>
<defs>
<linearGradient id="paint0_linear_23_2" x1="431.823" y1="69.8268" x2="197.583" y2="775.635" gradientUnits="userSpaceOnUse">
<stop stop-color="#F3F7FF"/>
<stop offset="1" stop-color="#DEEEFE"/>
</linearGradient>
<clipPath id="clip0_23_2">
<rect width="937.962" height="671.376" fill="white" transform="translate(-18.4224) rotate(21.4558)"/>
</clipPath>
</defs>
</svg>
